PathFileType	4	(X/Y/Z)	RBDS05\RBDS05runT35.trc
DataRate	CameraRate	NumFrames	NumMarkers	Units	OrigDataRate	OrigDataStartFrame	OrigNumFrames
150.000000	150.000000	4	33	mm	150.000000	1687	4500
Frame#	Time	L.ASIS			L.Heel.Bottom			L.Heel.Lateral			L.Heel.Top			L.Iliac.Crest			L.MT1			L.MT5			L.PSIS			L.Shank.Bottom.Lateral			L.Shank.Bottom.Medial			L.Shank.Top.Lateral			L.Shank.Top.Medial			L.Thigh.Bottom.Lateral			L.Thigh.Bottom.Medial			L.Thigh.Top.Lateral			L.Thigh.Top.Medial			R.ASIS			R.ASY			R.Heel.Bottom			R.Heel.Lateral			R.Heel.Top			R.Iliac.Crest			R.MT1			R.MT5			R.PSIS			R.Shank.Bottom.Lateral			R.Shank.Bottom.Medial			R.Shank.Top.Lateral			R.Shank.Top.Medial			R.Thigh.Bottom.Lateral			R.Thigh.Bottom.Medial			R.Thigh.Top.Lateral			R.Thigh.Top.Medial			
		X1	Y1	Z1	X2	Y2	Z2	X3	Y3	Z3	X4	Y4	Z4	X5	Y5	Z5	X6	Y6	Z6	X7	Y7	Z7	X8	Y8	Z8	X9	Y9	Z9	X10	Y10	Z10	X11	Y11	Z11	X12	Y12	Z12	X13	Y13	Z13	X14	Y14	Z14	X15	Y15	Z15	X16	Y16	Z16	X17	Y17	Z17	X18	Y18	Z18	X19	Y19	Z19	X20	Y20	Z20	X21	Y21	Z21	X22	Y22	Z22	X23	Y23	Z23	X24	Y24	Z24	X25	Y25	Z25	X26	Y26	Z26	X27	Y27	Z27	X28	Y28	Z28	X29	Y29	Z29	X30	Y30	Z30	X31	Y31	Z31	X32	Y32	Z32	X33	Y33	Z33	

1688	11.24666666666667	2216.273825965138	957.8580462769351	938.7007054447491	1595.702619705664	397.3368247293101	1072.645830643484	1603.914864697328	374.9257166973208	1022.353802154692	1643.598037282034	392.2633724258945	1059.124888738444	2172.203200948115	1038.92931300341	910.9499059849655	1637.050484153563	194.7163572202746	1066.543166852646	1598.98753957144	234.1661432768884	977.5991176756742	2070.195440413541	1012.631995722874	1016.532011053055	1713.441966623057	378.6809447909785	974.2712706288592	1702.831449337652	409.2536919891016	1014.245404104427	1776.80382738164	424.3048834779173	952.3835339735911	1769.293963485384	457.5048112124162	993.0291485311973	2039.9452647447	626.515240771525	891.1080229583065	1987.25425450678	634.8735967822796	941.6929442402121	2051.601048596788	736.4688276014276	890.9217171521942	2006.946027682794	743.5301273185943	943.3838908531491	2226.177246312356	968.1620179205587	1158.300107383456	2448.077211972458	147.1089163007618	1089.090909514086	2319.441028034493	22.21851508078466	1078.588173526555	2339.130562627859	43.90937932721314	1118.113053263726	2308.373404202795	68.26027374707338	1082.998974720706	2173.541554347268	1021.8042356511	1195.01761876758	2497.751142873564	121.6006478189517	1040.184245770657	2481.988641484212	99.7636641787887	1143.774623731281	2077.981371360834	1010.417530793526	1106.276059017097	2322.288544859894	191.5914052834561	1140.12173045278	2281.838618291784	182.5802579615118	1104.07076522998	2291.177094453516	265.0526285504677	1154.061043531652	2253.019089004899	256.0668898365367	1117.066795136687	2252.33796084339	590.8301520225027	1184.704131086025	2188.141977389567	568.6185334696702	1157.322992276082	2206.986987983521	690.1647659702257	1205.136780700275	2146.593241358888	669.0080322498184	1177.351972955923	
1689	11.25333333333333	2217.044859625351	953.8743770352909	939.2313854895384	1602.960247573005	405.6941108289636	1074.283401364085	1609.968537423302	383.3649589316782	1023.725380995031	1650.526504259774	399.0285128268987	1060.41647283903	2171.801125693311	1034.379259351282	910.8574220663734	1637.2323940999	201.4254579044788	1066.109344481267	1599.926298309259	243.1279838755453	977.7168672725354	2070.076876624339	1007.259007217577	1016.105605117248	1718.984832372342	382.3658692376657	974.3164409124244	1709.763769938746	413.6177245044515	1014.07515221107	1783.744695099344	425.5148843828155	951.5619886101329	1777.674882969466	459.3089304147495	991.9616963184843	2046.815181350522	619.529889874743	889.0743599053179	1993.947661363871	626.3482413930982	939.8226937933537	2056.131983235039	729.6739001363019	889.685317822524	2011.092536522306	735.4407737166166	942.0609121645679	2225.459954174601	964.4089053964464	1159.627430950522	2435.803924641556	137.7440880372286	1088.434957904687	2301.638630882948	20.41421132166853	1078.731906058934	2322.584394760232	41.08006291463589	1118.050012356045	2293.358413800423	66.73761588921462	1082.58960783771	2172.259945016355	1017.660161682423	1195.511712516419	2483.951498695514	109.6527156323879	1039.716142443421	2467.412712969308	89.36333685855661	1143.369714364501	2077.011225440052	1005.555609545844	1105.852417819827	2312.222948805563	186.1177785038576	1139.755462641275	2271.284008883559	178.596190364313	1104.004626406469	2283.902724645931	260.5565496648137	1153.969431338004	2245.166040035332	252.9989495199652	1117.323736489655	2252.120366161713	587.3371688600189	1184.648778394652	2187.911618018328	564.8268077455639	1157.393643329527	2206.223371853516	686.4941271225887	1204.991943418651	2145.974317665961	664.9686684547352	1177.252962533376	
1690	11.26	2217.739760335688	949.4484793565385	939.7546390552039	1611.323968977732	413.1692942195201	1075.256595115792	1617.264513973361	390.7953908173487	1024.519690000548	1658.543303786255	404.9893457181572	1061.192762113245	2171.431023471536	1029.300058250216	910.6899762018033	1639.07976697137	207.5332117987411	1065.659721755624	1602.612600345413	251.0606178699444	977.6260384528729	2069.844168996197	1001.450386721492	1015.618865327335	1725.749660568199	385.2516083157864	974.0546747416284	1717.840631444872	417.1775246458453	1013.530264137964	1791.756546396923	425.9401907479599	950.4667212548004	1787.05201449327	460.3187074288817	990.5596735374188	2054.109974007464	612.0988037544322	887.072941734446	2000.92598252426	617.3875406575796	937.7562777427759	2060.981691693349	722.3945608357567	888.3635172987442	2015.416308786812	726.880738348647	940.4629894827194	2224.6198386825	960.3220260135115	1161.01371662379	2422.232044087477	128.0755312225611	1087.664534460115	2281.944391854841	19.26925741288236	1078.717592088539	2304.228375871694	38.78070799798124	1117.820875847988	2276.776312749511	65.8769211965631	1081.92267474971	2170.874880168694	1012.892326187683	1196.113037743286	2468.662291052055	97.23560500832174	1039.224674412887	2451.217425665272	78.71945142490537	1142.987152896391	2075.822172130033	1000.335638705466	1105.343555910767	2301.264076920026	180.7344754149937	1139.228150496049	2259.834192217102	174.9400199865342	1103.826308454614	2276.084029301429	256.1714027567005	1153.794657480572	2236.758953240556	250.2753841723908	1117.510495162029	2252.030361220049	583.7538127549107	1184.785639574796	2187.874521829268	560.8899383436614	1157.567984077065	2205.480067362352	682.6896644005868	1205.018297603449	2145.40005107382	660.7307253611439	1177.282718892586	
1691	11.26666666666667	2218.318121938718	944.6317910743845	940.2707912482394	1620.618662175976	419.7253205008393	1075.438515900293	1625.681360753439	397.1375032311146	1024.638570240384	1667.499043389641	410.1386641162572	1061.367075735084	2171.116413336582	1023.697952667727	910.4426551377378	1642.594283528925	213.0028891822886	1065.268134975893	1607.054311056087	257.8166308542152	977.3478340909644	2069.452300958239	995.289929458645	1015.066689992618	1733.693482678928	387.3324632787247	973.4753888870854	1726.995469047645	419.9478763467353	1012.584809051241	1800.812052550572	425.5959172336894	949.1099779120071	1797.379142491977	460.567573683666	988.8226778700911	2061.820626065197	604.3578039699195	885.1568090083495	2008.182075213609	608.1136972119114	935.5287618524984	2066.141025715968	714.7596182158269	887.0151864714351	2019.919382895715	717.9630645244725	938.6433926495084	2223.613292114003	956.0159227717782	1162.413486671066	2407.504678553203	118.6295270042411	1086.779872107209	2260.906882034864	18.83020360981778	1078.563726107724	2284.525882006802	37.14084240723678	1117.449447562866	2258.986141495934	65.69044308896181	1081.043632835053	2169.374893620001	1007.575849370807	1196.804388605737	2452.101491806633	85.06422612282486	1038.705787301041	2433.701605716825	68.49266043647253	1142.630687549668	2074.376715678317	994.8583688532343	1104.730196651956	2289.616510446138	175.7130091662854	1138.562418917787	2247.701555667069	171.8315007071062	1103.58368042386	2267.850777489299	252.1033846727192	1153.554729611475	2227.940291510694	248.0511989173543	1117.665102320908	2251.949856344123	580.1506152353073	1185.139923313832	2187.912142408233	556.9123175877469	1157.850205339427	2204.690860378626	678.841300787697	1205.251092130835	2144.791180423721	656.4179692852639	1177.472588296318	
